<svg xmlns="http://www.w3.org/2000/svg" width="660" height="207.712" viewBox="0 0 660 207.712">
  <path id="logo-lg" d="M378.175-605.283H429.42c-7.771-3.99-11.761-10.921-11.761-20.163v-89.049l-45.365,31.5h18.062v57.545C390.356-616.2,386.576-609.484,378.175-605.283Zm-57.81,0h51.246c-7.771-3.99-11.761-10.921-11.761-20.163V-767l-45.365,31.5h18.062v110.051C332.547-616.2,328.766-609.484,320.365-605.283ZM588.724-641.2c23.1,0,40.534-14.913,40.534-36.124,0-8.19-3.78-16.592-9.871-23.1a6.773,6.773,0,0,1,3.781-1.259c4.83,0,6.931,7.979,14.071,7.979,5.25,0,10.5-5.25,10.5-13.44,0-7.351-5.461-13.022-11.341-13.022-7.351,0-14.492,8.4-19.322,17.432-7.351-6.3-18.692-10.71-28.563-10.71-23.1,0-40.324,14.91-40.324,36.123S565.622-641.2,588.724-641.2Zm-.21-5.041c-6.091,0-10.5-9.241-10.5-31.083s4.411-31.083,10.5-31.083c6.3,0,11.131,9.241,11.131,31.083S594.814-646.238,588.514-646.238ZM575.492-607.8l38.014,17.641c5.46,2.521,8.191,6.3,8.191,11.132,0,7.562-9.241,15.542-23.943,15.542-17.852,0-28.143-7.77-28.143-20.792,0-6.93,3.57-16.382,9.241-22.262l-2.52-1.051c-21.842,4.412-34.023,15.124-34.023,27.514,0,13.021,19.532,20.792,52.715,20.792C625.9-559.289,649-573.78,649-593.1c0-7.98-5.46-15.331-14.281-19.322l-33.6-15.542c-10.5-4.83-13.862-7.77-12.812-10.71l-27.933,19.323C562.051-615.575,568.141-611.164,575.492-607.8ZM475.468-689.5c4.621-2.941,13.651-5.252,18.9-4.831,5.251.209,7.351,3.15,7.351,10.081v58.806c0,9.241-3.99,16.173-11.761,20.163h50.825c-7.771-3.99-11.761-10.921-11.761-20.163v-65.946c0-13.232-6.931-22.052-19.322-22.052-13.651,0-24.782,9.451-34.233,20.161v-21.212l-45.365,31.5h18.062v57.545c0,9.241-3.78,15.962-12.181,20.163H487.23c-7.771-3.99-11.761-10.921-11.761-20.163ZM61.878-601.713l51.875-137.354v113.622c0,9.241-3.78,15.962-14.912,20.163h57.336c-10.081-4.2-13.861-10.921-13.861-20.163V-742.638c0-9.24,3.78-15.962,13.861-20.163H113.753l-39.9,107.952L33.315-762.8H-11c10.081,4.2,13.861,10.922,13.861,20.163v112.992c0,12.392-3.78,19.113-13.861,24.363H24.074c-10.081-5.25-13.861-11.971-13.861-24.363v-109Zm342.55-122.443c10.291,0,18.482-9.452,18.482-20.792,0-11.76-8.191-21-18.482-21s-18.272,9.242-18.272,21C386.156-733.608,394.137-724.156,404.428-724.156ZM262.556-605.283H313.8c-7.771-3.99-11.761-10.921-11.761-20.163V-767l-45.365,31.5h18.062v110.051C274.737-616.2,270.956-609.484,262.556-605.283Zm-27.776,3.151c6.931,0,18.272-5.041,22.682-12.6a12.15,12.15,0,0,1-5.881,1.89c-4.2,0-7.351-3.78-7.351-10.921v-64.056c0-17.432-11.131-25.622-31.5-25.622-18.482,0-41.794,10.71-41.794,29.192,0,8.611,5.461,14.072,12.391,14.072,18.692,0,18.272-39.7,30.243-39.7q3.78,0,3.78,4.411v31.5l-27.723,18.692c-14.072,9.451-20.792,21.842-20.792,32.763,0,13.021,8.191,20.163,20.162,20.163,10.711,0,19.532-5.671,27.933-17.011C218.187-606.333,227.218-602.133,234.779-602.133Zm-27.933-16.383c-6.721,0-10.711-4.829-10.711-13.021,0-13.021,7.351-26.673,21.212-38.853v46C214.827-621.035,211.047-618.516,206.846-618.516Z" transform="translate(11 767)" fill="#3c0025"/>
</svg>
